HIERARCHY
ROOT Hips
{
 OFFSET 0.000000 0.000000 0.000000
 CHANNELS 6 Xposition Yposition Zposition Yrotation Xrotation Zrotation
 JOINT Chest
 {
  OFFSET 0.000000 9.585900 0.002600
  CHANNELS 3 Yrotation Xrotation Zrotation
  JOINT Chest2
  {
   OFFSET 0.000000 9.601200 -0.005300
   CHANNELS 3 Yrotation Xrotation Zrotation
   JOINT Chest3
   {
    OFFSET 0.000000 9.561800 0.000000
    CHANNELS 3 Yrotation Xrotation Zrotation
    JOINT Chest4
    {
     OFFSET 0.000000 9.552100 0.000000
     CHANNELS 3 Yrotation Xrotation Zrotation
     JOINT Neck
     {
      OFFSET 0.000000 14.453000 0.000000
      CHANNELS 3 Yrotation Xrotation Zrotation
      JOINT Head
      {
       OFFSET 0.000000 8.936500 -0.011300
       CHANNELS 3 Yrotation Xrotation Zrotation
       End Site
       {
        OFFSET 0.000000 17.073600 -0.006000
       }
      }
     }
     JOINT RightCollar
     {
      OFFSET -2.921100 9.558500 0.000000
      CHANNELS 3 Yrotation Xrotation Zrotation
      JOINT RightShoulder
      {
       OFFSET -13.519700 0.000000 0.000000
       CHANNELS 3 Yrotation Xrotation Zrotation
       JOINT RightElbow
       {
        OFFSET 0.000000 -29.696600 0.000000
        CHANNELS 3 Yrotation Xrotation Zrotation
        JOINT RightWrist
        {
         OFFSET 0.000000 -24.004700 0.000000
         CHANNELS 3 Yrotation Xrotation Zrotation
         End Site
         {
          OFFSET 0.000000 -17.728500 0.000000
         }
        }
       }
      }
     }
     JOINT LeftCollar
     {
      OFFSET 2.921100 9.558500 0.000000
      CHANNELS 3 Yrotation Xrotation Zrotation
      JOINT LeftShoulder
      {
       OFFSET 13.519700 0.000000 0.000000
       CHANNELS 3 Yrotation Xrotation Zrotation
       JOINT LeftElbow
       {
        OFFSET 0.000000 -29.696600 0.000000
        CHANNELS 3 Yrotation Xrotation Zrotation
        JOINT LeftWrist
        {
         OFFSET 0.000000 -24.004700 0.000000
         CHANNELS 3 Yrotation Xrotation Zrotation
         End Site
         {
          OFFSET 0.000000 -17.728500 0.000000
         }
        }
       }
      }
     }
    }
   }
  }
 }
 JOINT RightHip
 {
  OFFSET -7.771700 -0.012900 -0.001300
  CHANNELS 3 Yrotation Xrotation Zrotation
  JOINT RightKnee
  {
   OFFSET 0.000000 -40.869800 0.001200
   CHANNELS 3 Yrotation Xrotation Zrotation
   JOINT RightAnkle
   {
    OFFSET 0.000000 -39.717900 0.002100
    CHANNELS 3 Yrotation Xrotation Zrotation
    JOINT RightToe
    {
     OFFSET 0.000000 -4.965400 11.033500
     CHANNELS 3 Yrotation Xrotation Zrotation
     End Site
     {
      OFFSET 0.000000 -1.423100 5.872300
     }
    }
   }
  }
 }
 JOINT LeftHip
 {
  OFFSET 7.771700 -0.012900 -0.001300
  CHANNELS 3 Yrotation Xrotation Zrotation
  JOINT LeftKnee
  {
   OFFSET 0.000000 -40.869800 0.001200
   CHANNELS 3 Yrotation Xrotation Zrotation
   JOINT LeftAnkle
   {
    OFFSET 0.000000 -39.717900 0.002100
    CHANNELS 3 Yrotation Xrotation Zrotation
    JOINT LeftToe
    {
     OFFSET 0.000000 -4.965400 11.033500
     CHANNELS 3 Yrotation Xrotation Zrotation
     End Site
     {
      OFFSET 0.000000 -1.423100 5.872300
     }
    }
   }
  }
 }
}
MOTION
Frames: 12
Frame Time: 0.008333
-70.387276 63.340165 12.488044 164.848869 -54.405444 -3.821150 8.356885 25.160721 4.809041 1.332314 4.286127 0.375766 2.131502 6.803860 0.646893 6.963978 20.676506 2.886203 -1.478699 18.046582 2.497662 -3.528166 -2.175513 5.118844 6.350884 7.152838 7.606326 0.776512 -21.748558 -15.365938 -60.236140 -38.243868 115.733228 5.645342 8.175953 16.514258 -10.492288 4.682212 0.042400 -8.048794 -17.314244 19.985345 59.246004 -44.949290 -108.798943 13.624634 3.222592 -25.480324 -4.170388 -5.738423 11.026771 -27.051342 73.413028 -25.159050 0.389019 -13.092788 -2.016840 -0.314168 0.835355 -0.117644 -1.867042 -12.478235 1.152891 16.046105 61.620943 9.931444 -1.009591 -6.424388 1.556067 -0.294456 -0.876258 -0.150500
-70.388339 63.339332 12.485081 164.867396 -54.441154 -3.833659 8.351778 25.119006 4.794543 1.326189 4.345818 0.391962 2.132101 6.740637 0.632633 6.964640 20.660963 2.888022 -1.464036 18.138342 2.537750 -3.504587 -1.983528 5.185228 6.357839 7.225177 7.635866 0.741466 -21.840746 -15.413211 -59.716569 -37.857509 115.227732 5.457152 8.146308 16.613884 -10.516854 4.660519 0.011068 -8.253399 -17.527304 20.087896 58.409478 -44.387047 -108.092530 13.756505 3.312462 -25.561325 -4.174683 -5.699996 11.024980 -27.051054 73.416351 -25.165463 0.392180 -13.102343 -2.014078 -0.323137 0.830600 -0.122522 -1.870187 -12.444917 1.148990 16.047734 61.624846 9.936713 -1.019753 -6.422154 1.559282 -0.286684 -0.873368 -0.145375
-70.389471 63.343429 12.478405 164.914167 -54.514691 -3.866179 8.336093 25.115908 4.782606 1.323081 4.353910 0.399796 2.130505 6.731342 0.627985 6.965511 20.647632 2.889174 -1.445343 18.231189 2.583577 -3.481832 -1.778023 5.259199 6.365949 7.274128 7.655672 0.696491 -21.903073 -15.450022 -59.185526 -37.436427 114.696131 5.258111 8.122829 16.628117 -10.534354 4.653634 -0.006971 -8.470312 -17.774825 20.188251 57.553340 -43.752145 -107.372748 13.901419 3.434957 -25.530867 -4.180209 -5.616740 11.019761 -27.082877 73.411330 -25.197508 0.399011 -13.110618 -2.008542 -0.331733 0.821199 -0.125066 -1.888973 -12.369769 1.139945 16.054797 61.626466 9.944069 -1.025268 -6.413137 1.560349 -0.282259 -0.883958 -0.144439
-70.391663 63.344722 12.473598 164.962674 -54.570224 -3.899973 8.316512 25.126421 4.774273 1.325913 4.297365 0.384223 2.129123 6.760613 0.641575 6.966784 20.636980 2.890607 -1.430864 18.325735 2.627628 -3.455941 -1.559128 5.342059 6.381730 7.312541 7.672437 0.647130 -21.947906 -15.493127 -58.665791 -36.983019 114.152049 5.045749 8.102083 16.536880 -10.542959 4.687169 -0.008777 -8.703628 -18.085170 20.286658 56.679159 -43.055318 -106.631626 14.072851 3.580045 -25.376478 -4.177886 -5.548738 11.024046 -27.132583 73.393257 -25.252790 0.410463 -13.138909 -1.989011 -0.348019 0.837978 -0.130437 -1.905745 -12.315488 1.127586 16.059684 61.629021 9.956229 -1.029810 -6.408567 1.559308 -0.288279 -0.884964 -0.141549
-70.394279 63.343725 12.470587 164.985884 -54.612388 -3.916072 8.312550 25.112657 4.766440 1.322159 4.320173 0.390637 2.130984 6.727810 0.634216 6.969160 20.661943 2.904431 -1.418067 18.392228 2.662275 -3.433471 -1.329659 5.429325 6.394555 7.323269 7.671233 0.606556 -21.986090 -15.545729 -58.180865 -36.512434 113.606185 4.805872 8.072901 16.335117 -10.573490 4.589026 -0.047488 -8.929909 -18.312601 20.406366 55.794678 -42.321311 -105.865604 14.289287 3.726173 -25.103792 -4.183146 -5.503889 11.022013 -27.125984 73.395370 -25.255472 0.411989 -13.145350 -1.983564 -0.356976 0.833041 -0.135986 -1.910919 -12.275534 1.121796 16.061144 61.631378 9.960811 -1.037406 -6.403987 1.561248 -0.287353 -0.884640 -0.139410
-70.396299 63.343000 12.467891 165.005034 -54.658884 -3.934732 8.316112 25.091114 4.764121 1.318180 4.327642 0.393738 2.132079 6.726200 0.635391 6.968883 20.637821 2.899741 -1.390597 18.564047 2.742762 -3.420403 -1.135785 5.503598 6.405218 7.376548 7.690985 0.580331 -21.988633 -15.562595 -57.751565 -36.088669 113.045535 4.517377 8.023481 16.032371 -10.608152 4.531547 -0.086102 -9.163316 -18.540335 20.538215 54.916378 -41.565253 -105.073686 14.563151 3.854726 -24.727376 -4.174644 -5.456409 11.031209 -27.148895 73.393738 -25.276552 0.399433 -13.152653 -1.985811 -0.350429 0.829324 -0.131266 -1.918440 -12.229827 1.123738 16.061353 61.633883 9.957752 -1.034713 -6.403829 1.566035 -0.283947 -0.880795 -0.137581
-70.398508 63.341829 12.465861 165.021241 -54.704306 -3.952270 8.321974 25.082568 4.767778 1.321571 4.297574 0.386115 2.124521 6.778636 0.651841 6.967600 20.590161 2.884006 -1.369795 18.724818 2.815770 -3.403368 -0.906096 5.595458 6.437748 7.411243 7.671942 0.496666 -21.993570 -15.595355 -57.362175 -35.615374 112.497385 4.164417 7.934423 15.633616 -10.633807 4.492621 -0.120852 -9.411863 -18.805858 20.674058 54.040891 -40.787271 -104.253623 14.897283 3.940330 -24.262698 -4.160933 -5.409419 11.039068 -27.181075 73.388137 -25.296916 0.392248 -13.165276 -2.006165 -0.340166 0.832669 -0.113761 -1.922826 -12.185194 1.130078 16.050316 61.636802 9.939338 -1.027439 -6.402760 1.577744 -0.289403 -0.876963 -0.138367
-70.402508 63.340653 12.463700 165.055967 -54.751084 -3.975284 8.309603 25.104047 4.766104 1.321063 4.296794 0.384758 2.124208 6.776851 0.652051 6.967741 20.588124 2.885920 -1.355032 18.837305 2.871571 -3.382760 -0.641696 5.700996 6.456604 7.411973 7.657594 0.420680 -21.987180 -15.653934 -57.016076 -35.166676 111.956009 3.737376 7.789574 15.129353 -10.659248 4.397181 -0.169865 -9.657492 -19.080990 20.813966 53.154449 -39.983649 -103.405888 15.294096 3.963849 -23.737110 -4.155380 -5.361412 11.038367 -27.201874 73.386238 -25.318042 0.394117 -13.176286 -1.996676 -0.350786 0.837184 -0.112059 -1.935358 -12.140202 1.127009 16.041361 61.638771 9.923941 -1.032066 -6.397573 1.584703 -0.286242 -0.874685 -0.134991
-70.407715 63.339116 12.462015 165.090158 -54.796587 -3.992434 8.294996 25.124678 4.759778 1.325717 4.268348 0.380636 2.122907 6.774518 0.652129 6.966076 20.614234 2.896189 -1.341131 18.962577 2.932883 -3.354687 -0.357093 5.809711 6.475749 7.407584 7.637288 0.324769 -21.953824 -15.677603 -56.716275 -34.766833 111.412351 3.220891 7.591161 14.512997 -10.686011 4.291600 -0.222113 -9.889495 -19.365152 20.949062 52.256511 -39.152801 -102.533758 15.761043 3.920451 -23.175503 -4.148871 -5.315583 11.043010 -27.200758 73.387664 -25.342813 0.399156 -13.192970 -1.959349 -0.386317 0.847448 -0.121458 -1.940288 -12.099252 1.119068 16.028065 61.644823 9.911441 -1.050674 -6.389920 1.585679 -0.268613 -0.876787 -0.126236
-70.410831 63.339016 12.460797 165.117600 -54.852683 -4.017981 8.291132 25.127310 4.765053 1.324426 4.266948 0.380934 2.119565 6.719033 0.641461 6.951845 20.614662 2.897320 -1.300526 19.179984 3.016669 -3.315597 -0.054991 5.921456 6.508620 7.493480 7.658411 0.218626 -21.922775 -15.706298 -56.459026 -34.384775 110.871410 2.605179 7.343664 13.777830 -10.693097 4.259570 -0.267243 -10.110868 -19.658855 21.071658 51.359560 -38.293704 -101.644164 16.303608 3.814635 -22.581481 -4.139448 -5.258186 11.051739 -27.231458 73.382131 -25.369250 0.393387 -13.198562 -1.959123 -0.374191 0.837259 -0.128298 -1.947532 -12.043334 1.122887 16.022339 61.645973 9.906747 -1.066221 -6.389615 1.584411 -0.264706 -0.872004 -0.121195
-70.412860 63.341688 12.458856 165.162035 -54.927874 -4.064287 8.283017 25.092143 4.771000 1.317712 4.320287 0.393150 2.117199 6.723891 0.639583 6.943759 20.618936 2.898046 -1.264721 19.349884 3.091275 -3.264227 0.262133 6.039346 6.530371 7.520241 7.656397 0.081799 -21.884045 -15.716937 -56.229246 -34.000057 110.329677 1.895868 7.047518 12.898503 -10.707658 4.162724 -0.311274 -10.334447 -19.961597 21.182045 50.489014 -37.397810 -100.757963 16.916502 3.668104 -21.928150 -4.120694 -5.176953 11.075594 -27.295446 73.363932 -25.415984 0.366968 -13.206058 -1.961815 -0.354684 0.841314 -0.109880 -1.967499 -11.966466 1.130375 16.027495 61.645356 9.909719 -1.065026 -6.387500 1.585330 -0.261674 -0.870309 -0.118581
-70.418192 63.343094 12.457785 165.190483 -54.994298 -4.082253 8.276405 25.103000 4.765754 1.313566 4.325260 0.394816 2.118801 6.724795 0.638893 6.941608 20.645762 2.909503 -1.225553 19.508245 3.162763 -3.197851 0.597488 6.164440 6.548350 7.504022 7.615013 -0.102804 -21.814671 -15.677691 -56.022146 -33.600991 109.798768 1.096233 6.703815 11.846019 -10.729783 4.040806 -0.356948 -10.568908 -20.271161 21.283129 49.681195 -36.454921 -99.907704 17.594508 3.508004 -21.159416 -4.118484 -5.108370 11.077069 -27.286349 73.360971 -25.423075 0.361834 -13.205840 -1.941401 -0.367044 0.838224 -0.114135 -1.968135 -11.898070 1.124862 16.015749 61.641776 9.895391 -1.070468 -6.381663 1.593433 -0.259610 -0.865094 -0.116629
